<svg height="30" viewBox="0 0 60 60" width="30" xmlns="http://www.w3.org/2000/svg"><g id="Page-1" fill="none" fill-rule="evenodd"><g id="047---Any-Solvent-Except-Tetrachlorethylene" fill-rule="nonzero"><g id="Color" transform="translate(1 1)"><circle id="Oval" cx="29" cy="29" fill="#a4c400" r="29"/><path id="Shape" d="m29 0c-.5 0-1 0-1.5 0 16.0162576.00000024 28.9999996 12.9837424 28.9999996 29s-12.983742 28.9999998-28.9999996 29h1.5c16.0162576-.0000002 28.9999996-12.9837424 28.9999996-29s-12.983742-28.99999976-28.9999996-29z" fill="#90ac00"/><circle id="Oval" cx="29" cy="29" fill="#e91e63" r="25"/><path id="Shape" d="m29 4c-.5 0-1 0-1.5 0 13.1671239.83401357 23.4196519 11.7564891 23.4196519 24.95s-10.252528 24.1159864-23.4196519 24.95h1.5c13.1671239-.8340136 23.4196519-11.7564891 23.4196519-24.95s-10.252528-24.11598643-23.4196519-24.95z" fill="#ad1457"/><path id="Shape" d="m21 45c-1.6568542 0-3-1.3431458-3-3v-26c0-1.6568542 1.3431458-3 3-3h9c5.5228475 0 10 4.4771525 10 10s-4.4771525 10-10 10h-6v9c0 1.6568542-1.3431458 3-3 3zm3-18h6c2.209139 0 4-1.790861 4-4s-1.790861-4-4-4h-6z" fill="#f5f5f5"/><g fill="#cfd8dc"><path id="Shape" d="m21 42c-.0064304 1.0653332-.5773664 2.0473431-1.5 2.58.4531431.2723195.971332.4174123 1.5.42 1.6568542 0 3-1.3431458 3-3v-9h-3z"/><path id="Rectangle-path" d="m21 19h3v8h-3z"/><path id="Shape" d="m30 13h-3c5.5228475 0 10 4.4771525 10 10s-4.4771525 10-10 10h3c5.5228475 0 10-4.4771525 10-10s-4.4771525-10-10-10z"/></g></g><g id="Outline" fill="#000"><path id="Shape" d="m30 0c-16.5685425 0-30 13.4314575-30 30s13.4314575 30 30 30 30-13.4314575 30-30c0-7.9564947-3.1607052-15.5871121-8.7867966-21.21320344-5.6260913-5.62609135-13.2567087-8.78679656-21.2132034-8.78679656zm0 58c-15.463973 0-28-12.536027-28-28s12.536027-28 28-28 28 12.536027 28 28-12.536027 28-28 28z"/><path id="Shape" d="m30 4c-14.3594035 0-26 11.6405965-26 26s11.6405965 26 26 26 26-11.6405965 26-26c0-6.8956287-2.7392778-13.5088305-7.6152237-18.3847763-4.8759458-4.87594585-11.4891476-7.6152237-18.3847763-7.6152237zm0 50c-13.254834 0-24-10.745166-24-24s10.745166-24 24-24 24 10.745166 24 24c0 6.3651958-2.5285642 12.4696897-7.0294373 16.9705627-4.500873 4.5008731-10.6053669 7.0294373-16.9705627 7.0294373z"/><path id="Shape" d="m31 13h-9c-2.209139 0-4 1.790861-4 4v26c0 2.209139 1.790861 4 4 4s4-1.790861 4-4v-8h5c6.0751322 0 11-4.9248678 11-11s-4.9248678-11-11-11zm0 20h-6c-.5522847 0-1 .4477153-1 1v9c0 1.1045695-.8954305 2-2 2s-2-.8954305-2-2v-26c0-1.1045695.8954305-2 2-2h9c4.9705627 0 9 4.0294373 9 9s-4.0294373 9-9 9z"/><path id="Shape" d="m31 19h-6c-.5522847 0-1 .4477153-1 1v8c0 .5522847.4477153 1 1 1h6c2.7614237 0 5-2.2385763 5-5s-2.2385763-5-5-5zm0 8h-5v-6h5c1.6568542 0 3 1.3431458 3 3s-1.3431458 3-3 3z"/></g></g></g></svg>
